<svg width="295" height="32" viewBox="0 0 295 32" fill="none" xmlns="http://www.w3.org/2000/svg">
<path d="M27.0859 16.1133C27.0859 15.2279 26.9688 14.3034 26.7344 13.3398C26.5 12.3633 26.168 11.4128 25.7383 10.4883C25.3216 9.55078 24.8138 8.66536 24.2148 7.83203C23.6289 6.98568 22.9779 6.25 22.2617 5.625C21.5586 4.98698 20.8034 4.48568 19.9961 4.12109C19.1888 3.74349 18.362 3.55469 17.5156 3.55469C16.3698 3.55469 15.3346 3.72396 14.4102 4.0625C13.4857 4.40104 12.6589 4.86328 11.9297 5.44922C11.2135 6.02214 10.5885 6.70573 10.0547 7.5C9.52083 8.29427 9.07812 9.14714 8.72656 10.0586C8.38802 10.957 8.13411 11.901 7.96484 12.8906C7.79557 13.8672 7.71094 14.8372 7.71094 15.8008C7.71094 16.8555 7.76953 17.9102 7.88672 18.9648C8.01693 20.0195 8.22526 21.0352 8.51172 22.0117C8.8112 22.9753 9.1888 23.8802 9.64453 24.7266C10.1133 25.5599 10.6862 26.2891 11.3633 26.9141C12.0404 27.526 12.8281 28.0078 13.7266 28.3594C14.638 28.7109 15.6732 28.8867 16.832 28.8867C17.7565 28.8867 18.6484 28.7044 19.5078 28.3398C20.3802 27.9753 21.194 27.487 21.9492 26.875C22.7174 26.25 23.4141 25.5208 24.0391 24.6875C24.6771 23.8411 25.2174 22.9492 25.6602 22.0117C26.1159 21.0612 26.4674 20.0846 26.7148 19.082C26.9622 18.0664 27.0859 17.0768 27.0859 16.1133ZM29.1172 16.1133C29.1172 17.4805 28.9414 18.8021 28.5898 20.0781C28.2513 21.3411 27.7695 22.5326 27.1445 23.6523C26.5326 24.7721 25.7904 25.7943 24.918 26.7188C24.0456 27.6432 23.082 28.4375 22.0273 29.1016C20.9857 29.7656 19.8659 30.2799 18.668 30.6445C17.4701 31.0091 16.2331 31.1914 14.957 31.1914C13.668 31.1914 12.418 31.0091 11.207 30.6445C10.0091 30.293 8.88932 29.7917 7.84766 29.1406C6.80599 28.4766 5.84896 27.6888 4.97656 26.7773C4.11719 25.8529 3.38151 24.8372 2.76953 23.7305C2.15755 22.6107 1.68229 21.4062 1.34375 20.1172C1.00521 18.8281 0.835938 17.4935 0.835938 16.1133C0.835938 14.7331 1.00521 13.3984 1.34375 12.1094C1.68229 10.8203 2.15755 9.6224 2.76953 8.51562C3.38151 7.39583 4.11719 6.38021 4.97656 5.46875C5.84896 4.54427 6.80599 3.75651 7.84766 3.10547C8.88932 2.44141 10.0091 1.93359 11.207 1.58203C12.418 1.21745 13.668 1.03516 14.957 1.03516C16.3242 1.03516 17.6198 1.23047 18.8438 1.62109C20.0807 2.01172 21.2201 2.55208 22.2617 3.24219C23.3164 3.93229 24.2669 4.7526 25.1133 5.70312C25.9596 6.65365 26.6758 7.6888 27.2617 8.80859C27.8607 9.92839 28.3164 11.1068 28.6289 12.3438C28.9544 13.5807 29.1172 14.8372 29.1172 16.1133Z" fill="#EB9F4A"/>
<path d="M57.3203 10C57.3203 9.08854 57.1706 8.29427 56.8711 7.61719C56.5716 6.92708 56.1484 6.33464 55.6016 5.83984C55.0677 5.34505 54.4232 4.94141 53.668 4.62891C52.9128 4.30339 52.0859 4.04948 51.1875 3.86719C50.2891 3.67188 49.3255 3.54167 48.2969 3.47656C47.2812 3.39844 46.2331 3.35938 45.1523 3.35938C44.8529 3.35938 44.5794 3.35938 44.332 3.35938C44.0846 3.35938 43.8503 3.3724 43.6289 3.39844L43.2773 16.6797C43.7721 16.7839 44.3125 16.8555 44.8984 16.8945C45.4844 16.9336 46.0898 16.9531 46.7148 16.9531C47.4831 16.9531 48.2773 16.9076 49.0977 16.8164C49.918 16.7253 50.7188 16.5755 51.5 16.3672C52.2943 16.1589 53.043 15.8854 53.7461 15.5469C54.4492 15.1953 55.0612 14.7656 55.582 14.2578C56.1159 13.737 56.5391 13.125 56.8516 12.4219C57.1641 11.7188 57.3203 10.9115 57.3203 10ZM60.5625 22.3633C60.5625 22.3893 60.569 22.4609 60.582 22.5781C60.5951 22.6823 60.6016 22.8385 60.6016 23.0469C60.6016 24.1016 60.4388 25.0781 60.1133 25.9766C59.8008 26.875 59.3516 27.6497 58.7656 28.3008C58.1797 28.9388 57.4701 29.4401 56.6367 29.8047C55.8034 30.1693 54.8724 30.3516 53.8438 30.3516H53.7852C52.8346 30.3255 51.9948 30.1693 51.2656 29.8828C50.5495 29.5964 49.918 29.2188 49.3711 28.75C48.8372 28.2682 48.388 27.7083 48.0234 27.0703C47.6589 26.4323 47.3659 25.7487 47.1445 25.0195C46.9232 24.2773 46.7604 23.5091 46.6562 22.7148C46.5651 21.9206 46.5195 21.1328 46.5195 20.3516C46.5195 20.1172 46.526 19.8893 46.5391 19.668C46.5521 19.4336 46.5586 19.2253 46.5586 19.043C45.9727 19.043 45.3997 19.0169 44.8398 18.9648C44.293 18.9128 43.7591 18.8477 43.2383 18.7695L42.9453 28.8867C42.9453 29.1992 42.8411 29.4466 42.6328 29.6289C42.4375 29.7982 42.1966 29.8828 41.9102 29.8828C41.8971 29.8828 41.6302 29.8893 41.1094 29.9023C40.6016 29.9023 39.944 29.9154 39.1367 29.9414C38.3294 29.9674 37.4375 30.013 36.4609 30.0781C35.4844 30.1432 34.5273 30.2344 33.5898 30.3516H33.4727C33.1732 30.3516 32.9258 30.2474 32.7305 30.0391C32.5352 29.8438 32.4375 29.6159 32.4375 29.3555C32.4375 29.0951 32.5156 28.8672 32.6719 28.6719C32.8411 28.4766 33.056 28.3594 33.3164 28.3203C33.7982 28.2552 34.2865 28.2031 34.7812 28.1641C35.2891 28.125 35.7839 28.0859 36.2656 28.0469L36.7148 3.96484C35.7513 4.12109 35.0221 4.25781 34.5273 4.375C34.0326 4.49219 33.7721 4.55078 33.7461 4.55078C33.6549 4.61589 33.5638 4.64844 33.4727 4.64844C33.1732 4.64844 32.9258 4.54427 32.7305 4.33594C32.5352 4.1276 32.4375 3.88021 32.4375 3.59375C32.4375 3.3724 32.5026 3.17708 32.6328 3.00781C32.763 2.82552 32.9388 2.70182 33.1602 2.63672C33.1992 2.6237 33.4727 2.54557 33.9805 2.40234C34.4883 2.25911 35.237 2.10938 36.2266 1.95312C37.2292 1.79688 38.4661 1.65365 39.9375 1.52344C41.4219 1.39323 43.1602 1.32812 45.1523 1.32812C46.4284 1.39323 47.6589 1.48438 48.8438 1.60156C50.0417 1.71875 51.168 1.90104 52.2227 2.14844C53.2773 2.38281 54.2409 2.70182 55.1133 3.10547C55.9857 3.49609 56.7344 4.00391 57.3594 4.62891C57.9974 5.25391 58.4857 6.00911 58.8242 6.89453C59.1758 7.76693 59.3516 8.80208 59.3516 10C59.3516 10.9505 59.2018 11.849 58.9023 12.6953C58.6159 13.5286 58.2122 14.2904 57.6914 14.9805C57.1706 15.6576 56.5391 16.25 55.7969 16.7578C55.0677 17.2526 54.2669 17.6432 53.3945 17.9297C53.3685 18.2292 53.349 18.5352 53.3359 18.8477C53.3229 19.1602 53.3164 19.4792 53.3164 19.8047C53.3164 20.0781 53.3229 20.4622 53.3359 20.957C53.349 21.4518 53.3815 21.9922 53.4336 22.5781C53.4857 23.1641 53.5638 23.763 53.668 24.375C53.7852 24.987 53.9349 25.5469 54.1172 26.0547C54.3125 26.5495 54.5534 26.9596 54.8398 27.2852C55.1263 27.5977 55.4714 27.7539 55.875 27.7539C56.3958 27.7539 56.8255 27.5781 57.1641 27.2266C57.5026 26.875 57.776 26.4518 57.9844 25.957C58.1927 25.4492 58.3359 24.9284 58.4141 24.3945C58.5052 23.8607 58.5508 23.4115 58.5508 23.0469C58.5508 22.9036 58.5443 22.7865 58.5312 22.6953C58.5182 22.6042 58.5117 22.5195 58.5117 22.4414C58.5117 22.1419 58.6159 21.901 58.8242 21.7188C59.0456 21.5365 59.2865 21.4453 59.5469 21.4453C59.8073 21.4453 60.0352 21.5365 60.2305 21.7188C60.4258 21.888 60.5365 22.1029 60.5625 22.3633ZM178.258 10C178.258 9.08854 178.108 8.29427 177.809 7.61719C177.509 6.92708 177.086 6.33464 176.539 5.83984C176.005 5.34505 175.361 4.94141 174.605 4.62891C173.85 4.30339 173.023 4.04948 172.125 3.86719C171.227 3.67188 170.263 3.54167 169.234 3.47656C168.219 3.39844 167.171 3.35938 166.09 3.35938C165.79 3.35938 165.517 3.35938 165.27 3.35938C165.022 3.35938 164.788 3.3724 164.566 3.39844L164.215 16.6797C164.71 16.7839 165.25 16.8555 165.836 16.8945C166.422 16.9336 167.027 16.9531 167.652 16.9531C168.421 16.9531 169.215 16.9076 170.035 16.8164C170.855 16.7253 171.656 16.5755 172.438 16.3672C173.232 16.1589 173.98 15.8854 174.684 15.5469C175.387 15.1953 175.999 14.7656 176.52 14.2578C177.053 13.737 177.477 13.125 177.789 12.4219C178.102 11.7188 178.258 10.9115 178.258 10ZM181.5 22.3633C181.5 22.3893 181.507 22.4609 181.52 22.5781C181.533 22.6823 181.539 22.8385 181.539 23.0469C181.539 24.1016 181.376 25.0781 181.051 25.9766C180.738 26.875 180.289 27.6497 179.703 28.3008C179.117 28.9388 178.408 29.4401 177.574 29.8047C176.741 30.1693 175.81 30.3516 174.781 30.3516H174.723C173.772 30.3255 172.932 30.1693 172.203 29.8828C171.487 29.5964 170.855 29.2188 170.309 28.75C169.775 28.2682 169.326 27.7083 168.961 27.0703C168.596 26.4323 168.303 25.7487 168.082 25.0195C167.861 24.2773 167.698 23.5091 167.594 22.7148C167.503 21.9206 167.457 21.1328 167.457 20.3516C167.457 20.1172 167.464 19.8893 167.477 19.668C167.49 19.4336 167.496 19.2253 167.496 19.043C166.91 19.043 166.337 19.0169 165.777 18.9648C165.23 18.9128 164.697 18.8477 164.176 18.7695L163.883 28.8867C163.883 29.1992 163.779 29.4466 163.57 29.6289C163.375 29.7982 163.134 29.8828 162.848 29.8828C162.835 29.8828 162.568 29.8893 162.047 29.9023C161.539 29.9023 160.882 29.9154 160.074 29.9414C159.267 29.9674 158.375 30.013 157.398 30.0781C156.422 30.1432 155.465 30.2344 154.527 30.3516H154.41C154.111 30.3516 153.863 30.2474 153.668 30.0391C153.473 29.8438 153.375 29.6159 153.375 29.3555C153.375 29.0951 153.453 28.8672 153.609 28.6719C153.779 28.4766 153.993 28.3594 154.254 28.3203C154.736 28.2552 155.224 28.2031 155.719 28.1641C156.227 28.125 156.721 28.0859 157.203 28.0469L157.652 3.96484C156.689 4.12109 155.96 4.25781 155.465 4.375C154.97 4.49219 154.71 4.55078 154.684 4.55078C154.592 4.61589 154.501 4.64844 154.41 4.64844C154.111 4.64844 153.863 4.54427 153.668 4.33594C153.473 4.1276 153.375 3.88021 153.375 3.59375C153.375 3.3724 153.44 3.17708 153.57 3.00781C153.701 2.82552 153.876 2.70182 154.098 2.63672C154.137 2.6237 154.41 2.54557 154.918 2.40234C155.426 2.25911 156.174 2.10938 157.164 1.95312C158.167 1.79688 159.404 1.65365 160.875 1.52344C162.359 1.39323 164.098 1.32812 166.09 1.32812C167.366 1.39323 168.596 1.48438 169.781 1.60156C170.979 1.71875 172.105 1.90104 173.16 2.14844C174.215 2.38281 175.178 2.70182 176.051 3.10547C176.923 3.49609 177.672 4.00391 178.297 4.62891C178.935 5.25391 179.423 6.00911 179.762 6.89453C180.113 7.76693 180.289 8.80208 180.289 10C180.289 10.9505 180.139 11.849 179.84 12.6953C179.553 13.5286 179.15 14.2904 178.629 14.9805C178.108 15.6576 177.477 16.25 176.734 16.7578C176.005 17.2526 175.204 17.6432 174.332 17.9297C174.306 18.2292 174.286 18.5352 174.273 18.8477C174.26 19.1602 174.254 19.4792 174.254 19.8047C174.254 20.0781 174.26 20.4622 174.273 20.957C174.286 21.4518 174.319 21.9922 174.371 22.5781C174.423 23.1641 174.501 23.763 174.605 24.375C174.723 24.987 174.872 25.5469 175.055 26.0547C175.25 26.5495 175.491 26.9596 175.777 27.2852C176.064 27.5977 176.409 27.7539 176.812 27.7539C177.333 27.7539 177.763 27.5781 178.102 27.2266C178.44 26.875 178.714 26.4518 178.922 25.957C179.13 25.4492 179.273 24.9284 179.352 24.3945C179.443 23.8607 179.488 23.4115 179.488 23.0469C179.488 22.9036 179.482 22.7865 179.469 22.6953C179.456 22.6042 179.449 22.5195 179.449 22.4414C179.449 22.1419 179.553 21.901 179.762 21.7188C179.983 21.5365 180.224 21.4453 180.484 21.4453C180.745 21.4453 180.973 21.5365 181.168 21.7188C181.363 21.888 181.474 22.1029 181.5 22.3633ZM279.801 19.7266C279.319 18.2552 278.811 16.901 278.277 15.6641C277.743 14.4141 277.216 13.2943 276.695 12.3047C276.188 11.3021 275.699 10.4297 275.23 9.6875C274.775 8.93229 274.384 8.3138 274.059 7.83203C272.848 9.88932 271.76 11.901 270.797 13.8672C269.846 15.8203 269 17.7734 268.258 19.7266C269.299 19.8438 270.302 19.9414 271.266 20.0195C272.229 20.0846 273.186 20.1172 274.137 20.1172C275.074 20.1172 276.005 20.0846 276.93 20.0195C277.867 19.9414 278.824 19.8438 279.801 19.7266ZM293.121 30.4492C293.095 30.4492 293.069 30.4427 293.043 30.4297C293.017 30.4297 292.991 30.4167 292.965 30.3906C291.78 30.2083 290.608 30.0781 289.449 30C288.303 29.9219 287.158 29.8828 286.012 29.8828C284.879 29.8828 283.759 29.9219 282.652 30C281.559 30.0781 280.465 30.2083 279.371 30.3906C279.345 30.4167 279.319 30.4297 279.293 30.4297C279.267 30.4427 279.241 30.4492 279.215 30.4492C278.928 30.4492 278.681 30.3385 278.473 30.1172C278.277 29.8958 278.18 29.6549 278.18 29.3945C278.18 29.1602 278.258 28.9453 278.414 28.75C278.583 28.5547 278.798 28.4375 279.059 28.3984C279.579 28.2943 280.107 28.2161 280.641 28.1641C281.174 28.099 281.721 28.0339 282.281 27.9688C282.216 27.7214 282.138 27.4154 282.047 27.0508C281.956 26.6732 281.832 26.2305 281.676 25.7227C281.533 25.2148 281.357 24.6289 281.148 23.9648C280.953 23.2878 280.719 22.526 280.445 21.6797C279.339 21.8359 278.271 21.9596 277.242 22.0508C276.214 22.1289 275.178 22.168 274.137 22.168C273.082 22.168 272.014 22.1289 270.934 22.0508C269.853 21.9596 268.72 21.8359 267.535 21.6797C266.845 23.737 266.285 25.7747 265.855 27.793C266.663 27.819 267.47 27.8841 268.277 27.9883C269.098 28.0794 269.931 28.2161 270.777 28.3984C271.012 28.4375 271.201 28.5547 271.344 28.75C271.5 28.9453 271.578 29.1602 271.578 29.3945C271.578 29.694 271.461 29.9414 271.227 30.1367C271.005 30.3451 270.771 30.4492 270.523 30.4492C270.484 30.4492 270.452 30.4362 270.426 30.4102C270.4 30.3971 270.367 30.3906 270.328 30.3906C269.469 30.2083 268.622 30.0716 267.789 29.9805C266.969 29.8893 266.148 29.8438 265.328 29.8438C264.521 29.8438 263.727 29.8893 262.945 29.9805C262.164 30.0716 261.37 30.2083 260.562 30.3906C260.523 30.3906 260.491 30.3971 260.465 30.4102C260.439 30.4362 260.406 30.4492 260.367 30.4492C260.068 30.4492 259.82 30.3451 259.625 30.1367C259.43 29.9284 259.332 29.681 259.332 29.3945C259.332 29.1602 259.404 28.9518 259.547 28.7695C259.69 28.5872 259.885 28.4635 260.133 28.3984C260.719 28.2552 261.305 28.1445 261.891 28.0664C262.49 27.9883 263.102 27.9232 263.727 27.8711C264.169 25.7227 264.749 23.5742 265.465 21.4258C266.181 19.2773 267.034 17.1094 268.023 14.9219C269.026 12.7214 270.172 10.4883 271.461 8.22266C272.75 5.95703 274.202 3.6263 275.816 1.23047C275.934 1.07422 276.064 0.963542 276.207 0.898438C276.363 0.833333 276.513 0.800781 276.656 0.800781C276.812 0.800781 276.962 0.833333 277.105 0.898438C277.249 0.950521 277.366 1.03516 277.457 1.15234C280.191 4.64193 282.535 8.60026 284.488 13.0273C286.454 17.4414 288.069 22.4089 289.332 27.9297C290.66 28.0469 291.982 28.2031 293.297 28.3984C293.557 28.4375 293.766 28.5547 293.922 28.75C294.091 28.9453 294.176 29.1602 294.176 29.3945C294.176 29.681 294.059 29.9284 293.824 30.1367C293.603 30.3451 293.368 30.4492 293.121 30.4492Z" fill="#77B29F"/>
<path d="M88.0039 9.35547C88.0039 9.39453 88.0104 9.44661 88.0234 9.51172C88.0365 9.5638 88.043 9.6224 88.043 9.6875C88.043 9.96094 87.9323 10.2018 87.7109 10.4102C87.5026 10.6185 87.2682 10.7227 87.0078 10.7227C86.7995 10.7227 86.6042 10.6576 86.4219 10.5273C86.2526 10.3971 86.1289 10.2214 86.0508 10C85.8815 9.50521 85.7188 8.97786 85.5625 8.41797C85.4062 7.84505 85.263 7.28516 85.1328 6.73828C85.0156 6.19141 84.9049 5.67708 84.8008 5.19531C84.6966 4.71354 84.6185 4.30339 84.5664 3.96484C83.8242 4.00391 82.9779 4.03646 82.0273 4.0625C81.0768 4.07552 80.0547 4.08203 78.9609 4.08203L78.3164 28.2031C79.3841 28.2422 80.4128 28.3203 81.4023 28.4375C81.6888 28.4635 81.9102 28.5742 82.0664 28.7695C82.2357 28.9518 82.3203 29.1732 82.3203 29.4336C82.3203 29.7591 82.2096 30.013 81.9883 30.1953C81.7799 30.3906 81.5586 30.4883 81.3242 30.4883H81.207C80.1523 30.3581 79.1107 30.2669 78.082 30.2148C77.0534 30.1758 76.0247 30.1562 74.9961 30.1562C73.9544 30.1562 72.9323 30.1758 71.9297 30.2148C70.9271 30.2669 69.9245 30.3581 68.9219 30.4883H68.8047C68.5182 30.4883 68.2708 30.3776 68.0625 30.1562C67.8672 29.9349 67.7695 29.694 67.7695 29.4336C67.7695 29.1732 67.8542 28.9518 68.0234 28.7695C68.2057 28.5742 68.4271 28.4635 68.6875 28.4375C69.6901 28.3203 70.6732 28.2422 71.6367 28.2031L72.0859 3.96484C70.9792 3.92578 69.9375 3.88021 68.9609 3.82812C67.9974 3.76302 67.1315 3.69792 66.3633 3.63281C66.2852 3.98438 66.1875 4.41406 66.0703 4.92188C65.9661 5.42969 65.8424 5.97005 65.6992 6.54297C65.569 7.11589 65.4323 7.70182 65.2891 8.30078C65.1458 8.88672 64.9961 9.4401 64.8398 9.96094C64.7747 10.1823 64.651 10.3646 64.4688 10.5078C64.2995 10.651 64.1042 10.7227 63.8828 10.7227C63.5833 10.7227 63.3359 10.6185 63.1406 10.4102C62.9453 10.1888 62.8477 9.94792 62.8477 9.6875C62.8477 9.64844 62.8477 9.60286 62.8477 9.55078C62.8477 9.48568 62.8607 9.43359 62.8867 9.39453C63.082 8.70443 63.2773 7.94922 63.4727 7.12891C63.668 6.30859 63.8438 5.54036 64 4.82422C64.1693 4.10807 64.306 3.50911 64.4102 3.02734C64.5143 2.54557 64.5664 2.29818 64.5664 2.28516C64.6315 2.03776 64.7487 1.84245 64.918 1.69922C65.1003 1.55599 65.3151 1.48438 65.5625 1.48438H65.7188C66.3958 1.57552 67.2161 1.65365 68.1797 1.71875C69.1562 1.78385 70.2044 1.84245 71.3242 1.89453C72.457 1.93359 73.6289 1.96615 74.8398 1.99219C76.0508 2.01823 77.2357 2.03125 78.3945 2.03125C79.8138 2.03125 81.1224 2.01823 82.3203 1.99219C83.5182 1.95312 84.5208 1.90104 85.3281 1.83594H85.4062C85.6406 1.83594 85.8555 1.92057 86.0508 2.08984C86.2461 2.24609 86.3633 2.44141 86.4023 2.67578C86.4023 2.6888 86.4219 2.79948 86.4609 3.00781C86.5 3.21615 86.5521 3.49609 86.6172 3.84766C86.6823 4.19922 86.7604 4.60286 86.8516 5.05859C86.9557 5.51432 87.0664 5.98958 87.1836 6.48438C87.3008 6.96615 87.4245 7.46094 87.5547 7.96875C87.6979 8.46354 87.8477 8.92578 88.0039 9.35547ZM202.73 19.7266C202.249 18.2552 201.741 16.901 201.207 15.6641C200.673 14.4141 200.146 13.2943 199.625 12.3047C199.117 11.3021 198.629 10.4297 198.16 9.6875C197.704 8.93229 197.314 8.3138 196.988 7.83203C195.777 9.88932 194.69 11.901 193.727 13.8672C192.776 15.8203 191.93 17.7734 191.188 19.7266C192.229 19.8438 193.232 19.9414 194.195 20.0195C195.159 20.0846 196.116 20.1172 197.066 20.1172C198.004 20.1172 198.935 20.0846 199.859 20.0195C200.797 19.9414 201.754 19.8438 202.73 19.7266ZM216.051 30.4492C216.025 30.4492 215.999 30.4427 215.973 30.4297C215.947 30.4297 215.921 30.4167 215.895 30.3906C214.71 30.2083 213.538 30.0781 212.379 30C211.233 29.9219 210.087 29.8828 208.941 29.8828C207.809 29.8828 206.689 29.9219 205.582 30C204.488 30.0781 203.395 30.2083 202.301 30.3906C202.275 30.4167 202.249 30.4297 202.223 30.4297C202.197 30.4427 202.171 30.4492 202.145 30.4492C201.858 30.4492 201.611 30.3385 201.402 30.1172C201.207 29.8958 201.109 29.6549 201.109 29.3945C201.109 29.1602 201.188 28.9453 201.344 28.75C201.513 28.5547 201.728 28.4375 201.988 28.3984C202.509 28.2943 203.036 28.2161 203.57 28.1641C204.104 28.099 204.651 28.0339 205.211 27.9688C205.146 27.7214 205.068 27.4154 204.977 27.0508C204.885 26.6732 204.762 26.2305 204.605 25.7227C204.462 25.2148 204.286 24.6289 204.078 23.9648C203.883 23.2878 203.648 22.526 203.375 21.6797C202.268 21.8359 201.201 21.9596 200.172 22.0508C199.143 22.1289 198.108 22.168 197.066 22.168C196.012 22.168 194.944 22.1289 193.863 22.0508C192.783 21.9596 191.65 21.8359 190.465 21.6797C189.775 23.737 189.215 25.7747 188.785 27.793C189.592 27.819 190.4 27.8841 191.207 27.9883C192.027 28.0794 192.861 28.2161 193.707 28.3984C193.941 28.4375 194.13 28.5547 194.273 28.75C194.43 28.9453 194.508 29.1602 194.508 29.3945C194.508 29.694 194.391 29.9414 194.156 30.1367C193.935 30.3451 193.701 30.4492 193.453 30.4492C193.414 30.4492 193.382 30.4362 193.355 30.4102C193.329 30.3971 193.297 30.3906 193.258 30.3906C192.398 30.2083 191.552 30.0716 190.719 29.9805C189.898 29.8893 189.078 29.8438 188.258 29.8438C187.451 29.8438 186.656 29.8893 185.875 29.9805C185.094 30.0716 184.299 30.2083 183.492 30.3906C183.453 30.3906 183.421 30.3971 183.395 30.4102C183.368 30.4362 183.336 30.4492 183.297 30.4492C182.997 30.4492 182.75 30.3451 182.555 30.1367C182.359 29.9284 182.262 29.681 182.262 29.3945C182.262 29.1602 182.333 28.9518 182.477 28.7695C182.62 28.5872 182.815 28.4635 183.062 28.3984C183.648 28.2552 184.234 28.1445 184.82 28.0664C185.419 27.9883 186.031 27.9232 186.656 27.8711C187.099 25.7227 187.678 23.5742 188.395 21.4258C189.111 19.2773 189.964 17.1094 190.953 14.9219C191.956 12.7214 193.102 10.4883 194.391 8.22266C195.68 5.95703 197.132 3.6263 198.746 1.23047C198.863 1.07422 198.993 0.963542 199.137 0.898438C199.293 0.833333 199.443 0.800781 199.586 0.800781C199.742 0.800781 199.892 0.833333 200.035 0.898438C200.178 0.950521 200.296 1.03516 200.387 1.15234C203.121 4.64193 205.465 8.60026 207.418 13.0273C209.384 17.4414 210.999 22.4089 212.262 27.9297C213.59 28.0469 214.911 28.2031 216.227 28.3984C216.487 28.4375 216.695 28.5547 216.852 28.75C217.021 28.9453 217.105 29.1602 217.105 29.3945C217.105 29.681 216.988 29.9284 216.754 30.1367C216.533 30.3451 216.298 30.4492 216.051 30.4492Z" fill="#AB70DF"/>
<path d="M116.656 16.1133C116.656 15.2279 116.539 14.3034 116.305 13.3398C116.07 12.3633 115.738 11.4128 115.309 10.4883C114.892 9.55078 114.384 8.66536 113.785 7.83203C113.199 6.98568 112.548 6.25 111.832 5.625C111.129 4.98698 110.374 4.48568 109.566 4.12109C108.759 3.74349 107.932 3.55469 107.086 3.55469C105.94 3.55469 104.905 3.72396 103.98 4.0625C103.056 4.40104 102.229 4.86328 101.5 5.44922C100.784 6.02214 100.159 6.70573 99.625 7.5C99.0911 8.29427 98.6484 9.14714 98.2969 10.0586C97.9583 10.957 97.7044 11.901 97.5352 12.8906C97.3659 13.8672 97.2812 14.8372 97.2812 15.8008C97.2812 16.8555 97.3398 17.9102 97.457 18.9648C97.5872 20.0195 97.7956 21.0352 98.082 22.0117C98.3815 22.9753 98.7591 23.8802 99.2148 24.7266C99.6836 25.5599 100.257 26.2891 100.934 26.9141C101.611 27.526 102.398 28.0078 103.297 28.3594C104.208 28.7109 105.243 28.8867 106.402 28.8867C107.327 28.8867 108.219 28.7044 109.078 28.3398C109.951 27.9753 110.764 27.487 111.52 26.875C112.288 26.25 112.984 25.5208 113.609 24.6875C114.247 23.8411 114.788 22.9492 115.23 22.0117C115.686 21.0612 116.038 20.0846 116.285 19.082C116.533 18.0664 116.656 17.0768 116.656 16.1133ZM118.688 16.1133C118.688 17.4805 118.512 18.8021 118.16 20.0781C117.822 21.3411 117.34 22.5326 116.715 23.6523C116.103 24.7721 115.361 25.7943 114.488 26.7188C113.616 27.6432 112.652 28.4375 111.598 29.1016C110.556 29.7656 109.436 30.2799 108.238 30.6445C107.04 31.0091 105.803 31.1914 104.527 31.1914C103.238 31.1914 101.988 31.0091 100.777 30.6445C99.5794 30.293 98.4596 29.7917 97.418 29.1406C96.3763 28.4766 95.4193 27.6888 94.5469 26.7773C93.6875 25.8529 92.9518 24.8372 92.3398 23.7305C91.7279 22.6107 91.2526 21.4062 90.9141 20.1172C90.5755 18.8281 90.4062 17.4935 90.4062 16.1133C90.4062 14.7331 90.5755 13.3984 90.9141 12.1094C91.2526 10.8203 91.7279 9.6224 92.3398 8.51562C92.9518 7.39583 93.6875 6.38021 94.5469 5.46875C95.4193 4.54427 96.3763 3.75651 97.418 3.10547C98.4596 2.44141 99.5794 1.93359 100.777 1.58203C101.988 1.21745 103.238 1.03516 104.527 1.03516C105.895 1.03516 107.19 1.23047 108.414 1.62109C109.651 2.01172 110.79 2.55208 111.832 3.24219C112.887 3.93229 113.837 4.7526 114.684 5.70312C115.53 6.65365 116.246 7.6888 116.832 8.80859C117.431 9.92839 117.887 11.1068 118.199 12.3438C118.525 13.5807 118.688 14.8372 118.688 16.1133ZM240.641 10.4883C240.615 10.7487 240.504 10.9701 240.309 11.1523C240.113 11.3216 239.885 11.4062 239.625 11.4062C239.312 11.4062 239.059 11.2956 238.863 11.0742C238.681 10.8398 238.59 10.599 238.59 10.3516V10.2734L239.273 3.24219C237.503 3.42448 235.732 3.57422 233.961 3.69141C232.203 3.80859 230.439 3.88672 228.668 3.92578L228.512 16.4062C229.579 16.4062 230.589 16.3542 231.539 16.25C232.49 16.1328 233.414 15.9961 234.312 15.8398C234.365 15.8138 234.43 15.8008 234.508 15.8008C234.755 15.8008 234.97 15.8789 235.152 16.0352C235.348 16.1914 235.465 16.3932 235.504 16.6406C235.504 16.9792 235.426 17.2526 235.27 17.4609C235.113 17.6693 234.911 17.793 234.664 17.832C233.479 18.0534 232.392 18.2096 231.402 18.3008C230.413 18.3919 229.436 18.4375 228.473 18.4375L228.395 27.7148C228.954 27.7409 229.54 27.7669 230.152 27.793C230.764 27.819 231.402 27.8646 232.066 27.9297C232.366 27.9557 232.594 28.0859 232.75 28.3203C232.906 28.5417 232.984 28.7826 232.984 29.043C232.958 29.3034 232.848 29.5247 232.652 29.707C232.47 29.8763 232.249 29.9609 231.988 29.9609H231.91C230.908 29.8828 229.977 29.8242 229.117 29.7852C228.271 29.7461 227.444 29.7266 226.637 29.7266C226.012 29.7266 225.387 29.7396 224.762 29.7656C224.15 29.7917 223.518 29.8307 222.867 29.8828C222.229 29.9349 221.565 30 220.875 30.0781C220.185 30.1562 219.462 30.2474 218.707 30.3516H218.59C218.29 30.3516 218.043 30.2474 217.848 30.0391C217.652 29.8438 217.555 29.6029 217.555 29.3164C217.555 29.082 217.633 28.8672 217.789 28.6719C217.958 28.4766 218.173 28.3594 218.434 28.3203C219.501 28.1641 220.53 28.0469 221.52 27.9688L221.793 3.92578C221.311 3.89974 220.829 3.88021 220.348 3.86719C219.866 3.85417 219.371 3.83464 218.863 3.80859C218.603 3.78255 218.375 3.67188 218.18 3.47656C217.997 3.28125 217.906 3.04036 217.906 2.75391C217.906 2.48047 218.01 2.24609 218.219 2.05078C218.427 1.85547 218.674 1.75781 218.961 1.75781H219C220.081 1.82292 221.161 1.86849 222.242 1.89453C223.336 1.90755 224.423 1.91406 225.504 1.91406C227.066 1.91406 228.518 1.89453 229.859 1.85547C231.201 1.81641 232.464 1.75781 233.648 1.67969C234.846 1.60156 235.992 1.51042 237.086 1.40625C238.18 1.28906 239.254 1.16536 240.309 1.03516H240.426C240.725 1.03516 240.966 1.13932 241.148 1.34766C241.331 1.54297 241.422 1.77083 241.422 2.03125V2.16797L240.641 10.4883Z" fill="#6884F6"/>
<path d="M150.035 17.7539C149.931 17.7539 149.866 17.7409 149.84 17.7148C149.163 17.5977 148.518 17.5195 147.906 17.4805C147.307 17.4284 146.715 17.3893 146.129 17.3633C146.611 17.9232 147.014 18.6068 147.34 19.4141C147.678 20.2083 147.848 21.1523 147.848 22.2461C147.848 23.2878 147.685 24.2318 147.359 25.0781C147.047 25.9115 146.617 26.6602 146.07 27.3242C145.523 27.9753 144.879 28.5417 144.137 29.0234C143.408 29.4922 142.626 29.8828 141.793 30.1953C140.973 30.5078 140.12 30.7357 139.234 30.8789C138.349 31.0352 137.483 31.1133 136.637 31.1133C134.423 31.0482 132.444 30.6771 130.699 30C128.954 29.3099 127.47 28.3464 126.246 27.1094C125.022 25.8724 124.085 24.375 123.434 22.6172C122.796 20.8594 122.477 18.8672 122.477 16.6406C122.477 14.6615 122.685 12.9036 123.102 11.3672C123.518 9.81771 124.085 8.46354 124.801 7.30469C125.53 6.13281 126.383 5.14974 127.359 4.35547C128.336 3.54818 129.371 2.89714 130.465 2.40234C131.572 1.89453 132.717 1.52995 133.902 1.30859C135.087 1.07422 136.253 0.957031 137.398 0.957031C138.544 0.957031 139.573 1.08073 140.484 1.32812C141.396 1.5625 142.21 1.86198 142.926 2.22656C143.642 2.59115 144.254 3.0013 144.762 3.45703C145.283 3.89974 145.712 4.32292 146.051 4.72656L147.125 1.64062C147.203 1.43229 147.333 1.26953 147.516 1.15234C147.698 1.02214 147.887 0.957031 148.082 0.957031C148.408 0.957031 148.661 1.07422 148.844 1.30859C149.026 1.52995 149.117 1.75781 149.117 1.99219C149.117 2.03125 149.111 2.08333 149.098 2.14844C149.085 2.20052 149.065 2.25911 149.039 2.32422L145.934 11.4062C145.868 11.6016 145.745 11.7643 145.562 11.8945C145.38 12.0117 145.178 12.0703 144.957 12.0703C144.658 12.0703 144.41 11.9661 144.215 11.7578C144.02 11.5365 143.922 11.2956 143.922 11.0352C143.922 10.9961 143.928 10.9505 143.941 10.8984C143.954 10.8464 143.974 10.7878 144 10.7227L145.25 7.07031C144.924 6.5625 144.527 6.07422 144.059 5.60547C143.603 5.1237 143.095 4.70052 142.535 4.33594C141.988 3.97135 141.409 3.67839 140.797 3.45703C140.185 3.23568 139.573 3.125 138.961 3.125C137.398 3.125 136.018 3.46354 134.82 4.14062C133.622 4.80469 132.613 5.72266 131.793 6.89453C130.986 8.05339 130.374 9.40755 129.957 10.957C129.54 12.5065 129.332 14.1602 129.332 15.918C129.332 16.6992 129.378 17.5651 129.469 18.5156C129.573 19.4661 129.736 20.4297 129.957 21.4062C130.191 22.3828 130.491 23.3268 130.855 24.2383C131.233 25.1497 131.695 25.9635 132.242 26.6797C132.789 27.3958 133.427 27.9688 134.156 28.3984C134.885 28.8281 135.725 29.043 136.676 29.043C138.264 29.043 139.632 28.8477 140.777 28.457C141.923 28.0664 142.861 27.5521 143.59 26.9141C144.332 26.276 144.879 25.5469 145.23 24.7266C145.582 23.9062 145.758 23.0664 145.758 22.207C145.758 21.4518 145.654 20.8008 145.445 20.2539C145.237 19.694 144.99 19.2318 144.703 18.8672C144.417 18.4896 144.124 18.1966 143.824 17.9883C143.525 17.7799 143.29 17.6367 143.121 17.5586C142.431 17.6497 141.812 17.7669 141.266 17.9102C140.732 18.0534 140.276 18.1901 139.898 18.3203C139.534 18.4505 139.247 18.5677 139.039 18.6719C138.844 18.763 138.74 18.8086 138.727 18.8086C138.583 18.9128 138.421 18.9648 138.238 18.9648C137.939 18.9648 137.691 18.8607 137.496 18.6523C137.301 18.431 137.203 18.1901 137.203 17.9297C137.203 17.5521 137.379 17.2526 137.73 17.0312C137.77 17.0182 137.978 16.9206 138.355 16.7383C138.733 16.556 139.26 16.3607 139.938 16.1523C140.628 15.931 141.461 15.7357 142.438 15.5664C143.427 15.3971 144.547 15.3125 145.797 15.3125C147.138 15.3125 148.609 15.4492 150.211 15.7227C150.445 15.7617 150.641 15.8789 150.797 16.0742C150.966 16.2565 151.051 16.4714 151.051 16.7188C151.051 17.0573 150.934 17.3177 150.699 17.5C150.465 17.6693 150.243 17.7539 150.035 17.7539ZM258.805 2.71484C258.805 2.97526 258.714 3.20312 258.531 3.39844C258.349 3.58073 258.121 3.6849 257.848 3.71094C257.366 3.76302 256.884 3.80859 256.402 3.84766C255.921 3.8737 255.426 3.89974 254.918 3.92578L254.293 28.0078C254.788 28.0469 255.289 28.0859 255.797 28.125C256.318 28.1641 256.839 28.2031 257.359 28.2422C257.659 28.3073 257.887 28.444 258.043 28.6523C258.199 28.8477 258.277 29.082 258.277 29.3555C258.251 29.6419 258.134 29.8633 257.926 30.0195C257.73 30.1888 257.503 30.2734 257.242 30.2734H257.164C256.122 30.1693 255.081 30.0911 254.039 30.0391C253.01 29.987 251.975 29.9609 250.934 29.9609C249.905 29.9609 248.883 29.987 247.867 30.0391C246.865 30.0911 245.855 30.1693 244.84 30.2734H244.762C244.462 30.2734 244.215 30.1758 244.02 29.9805C243.824 29.7721 243.727 29.5378 243.727 29.2773C243.727 29.0169 243.811 28.7891 243.98 28.5938C244.163 28.3984 244.384 28.2812 244.645 28.2422C245.126 28.2031 245.608 28.1641 246.09 28.125C246.585 28.0859 247.073 28.0469 247.555 28.0078L248.004 3.71094C246.884 3.63281 245.751 3.51562 244.605 3.35938C244.345 3.32031 244.13 3.20312 243.961 3.00781C243.805 2.8125 243.727 2.59766 243.727 2.36328C243.727 2.02474 243.844 1.77083 244.078 1.60156C244.312 1.41927 244.54 1.32812 244.762 1.32812H244.879C246.259 1.52344 247.62 1.66667 248.961 1.75781C250.302 1.83594 251.637 1.875 252.965 1.875C253.772 1.875 254.566 1.86198 255.348 1.83594C256.129 1.8099 256.91 1.75781 257.691 1.67969H257.77C258.069 1.67969 258.316 1.78385 258.512 1.99219C258.707 2.20052 258.805 2.44141 258.805 2.71484Z" fill="#ECC055"/>
</svg>
